<svg width="22" height="22" viewBox="0 0 22 22" fill="none" xmlns="http://www.w3.org/2000/svg">
<path d="M5.80029 6.70155L6.64645 6.7227V5.43232L5.82145 5.41116L5.80029 6.70155Z" fill="white"/>
<path d="M6.10064 3.14334C5.90171 3.47346 5.80029 3.84569 5.80029 4.23077V4.58607L6.64645 4.60714V4.23077C6.64645 4.00231 6.70987 3.77381 6.82824 3.57923L6.8367 3.56231L6.11324 3.12641L6.10064 3.14334ZM6.84102 2.4071L6.8241 2.41577L7.25563 3.14748L7.27256 3.13509C7.47132 3.0206 7.68717 2.96154 7.91568 2.96154H8.28358L8.30486 2.13646L7.91568 2.11539C7.53905 2.11539 7.16679 2.21701 6.84102 2.4071Z" fill="white"/>
<path d="M11.2241 2.94039L12.5357 2.96154V2.13654L11.2453 2.11539L11.2241 2.94039Z" fill="white"/>
<path d="M9.10889 2.94039L10.4204 2.96154V2.13654L9.13004 2.11539L9.10889 2.94039Z" fill="white"/>
<path d="M20.4685 12.2143V12.8024C20.3035 12.7304 20.1301 12.6881 19.9439 12.6881H19.8635V11.8208L19.4489 11.8124C18.4504 11.7954 15.6581 11.5881 14.7104 10.8604L14.3593 10.5939L14.1012 10.9577C14.0885 10.9789 13.7247 11.4781 12.8574 11.6177V11.4231C12.8574 10.8477 12.4724 10.3612 11.9478 10.2089C12.6162 9.12582 13.8135 8.40659 15.1801 8.40659H16.6608C18.7635 8.40659 20.4685 10.1116 20.4685 12.2143ZM20.7901 13.9531C20.7901 14.1858 20.697 14.3974 20.5447 14.5497C20.3924 14.7062 20.1808 14.7993 19.9439 14.7993H19.7874C19.8381 14.5539 19.8635 14.2958 19.8635 14.0377V13.1112H19.9439C20.1427 13.1112 20.3247 13.1789 20.4685 13.2889C20.6631 13.4454 20.7901 13.6824 20.7901 13.9531ZM15.9204 17.9808C15.3897 17.9808 14.8839 17.874 14.4213 17.6831C14.5246 18.422 15.1527 18.9926 15.9201 18.9926C16.6889 18.9926 17.3178 18.4198 17.4193 17.6788C16.9485 17.873 16.4414 17.9808 15.9204 17.9808Z" fill="white"/>
<path d="M19.4406 12.2354V14.0377C19.4406 14.7273 19.2417 15.3746 18.899 15.9161H15.9206V16.3392H18.5817C17.9344 17.0881 16.9825 17.5577 15.9206 17.5577C14.609 17.5577 13.4667 16.8427 12.8575 15.7765V12.0408C13.9871 11.8885 14.4525 11.1946 14.4525 11.1946C15.7175 12.1677 19.4406 12.2354 19.4406 12.2354ZM22.0002 20.6546V22H19.2502V20.3077H18.8271V22H13.014V20.3077H12.591V22H9.84096V20.6546C9.84096 20.2865 9.90442 19.9354 10.0271 19.6096H11.5883C12.2863 19.6096 12.8575 19.0384 12.8575 18.3404V17.6127H13.9829L14.004 17.7396C14.1352 18.6958 14.9602 19.415 15.9206 19.415C16.881 19.415 17.706 18.6958 17.8371 17.7354L17.854 17.6127H18.9583C20.6379 17.6127 22.0002 18.975 22.0002 20.6546ZM20.5448 15.0742V15.2815C20.5448 15.8654 20.071 16.3392 19.4871 16.3392H18.5817C18.696 16.2081 18.8017 16.0642 18.899 15.9161H19.4871C19.8425 15.9161 20.1217 15.6369 20.1217 15.2815V15.2096C20.274 15.1885 20.4136 15.1419 20.5448 15.0742ZM5.37128 20.3077H7.06359C7.15142 20.3077 7.23578 20.3206 7.32006 20.3336L6.9348 17.4519H5.50007L5.11481 20.3336C5.199 20.3207 5.28345 20.3077 5.37128 20.3077ZM8.33282 22H4.10205C4.10205 21.299 4.67028 20.7308 5.37128 20.7308H7.06359C7.76454 20.7308 8.33282 21.299 8.33282 22ZM15.9202 0C14.5183 0 13.3818 1.13651 13.3818 2.53846C13.3818 3.94041 14.5183 5.07692 15.9202 5.07692C17.3222 5.07692 18.4587 3.94041 18.4587 2.53846C18.4587 1.13651 17.3222 0 15.9202 0ZM16.6696 3.58706L15.7086 2.62604V1.03125H16.1316V2.45088L16.9687 3.28794L16.6696 3.58706Z" fill="white"/>
<path d="M11.5883 10.5769H10.448V11.6345C10.448 12.3344 9.87867 12.9037 9.17877 12.9037H9.06992V14.1969L6.81551 12.9037H3.2557C2.55581 12.9037 1.98647 12.3344 1.98647 11.6345V10.5769H0.846153C0.378823 10.5769 0 10.9558 0 11.4231V18.3392C0 18.8066 0.378823 19.1854 0.846153 19.1854H4.84135L5.12959 17.0291H7.30488L7.59313 19.1854H11.5883C12.0556 19.1854 12.4344 18.8066 12.4344 18.3392V11.4231C12.4345 10.9558 12.0556 10.5769 11.5883 10.5769Z" fill="white"/>
<path d="M9.17889 8.67307H3.25582C2.78849 8.67307 2.40967 9.05189 2.40967 9.51922V11.6346C2.40967 12.1019 2.78849 12.4808 3.25582 12.4808H6.92834L8.64704 13.4665V12.4808H9.17889C9.64622 12.4808 10.025 12.1019 10.025 11.6346V9.51922C10.025 9.05189 9.64622 8.67307 9.17889 8.67307ZM4.95418 11H4.10802V10.1538H4.95418V11ZM6.64648 11H5.80033V10.1538H6.64648V11ZM8.32669 11H7.48054V10.1538H8.32669V11Z" fill="white"/>
</svg>
